<svg width="47" height="48" fill="none" xmlns="http://www.w3.org/2000/svg"><mask id="a" maskUnits="userSpaceOnUse" x="0" y="0" width="47" height="48"><path fill-rule="evenodd" clip-rule="evenodd" d="M47 0H0v48h47V0z" fill="#fff"/></mask><g mask="url(#a)"><path fill-rule="evenodd" clip-rule="evenodd" d="M23.5 0C36.478 0 47 9.725 47 21.721c0 11.995-10.522 21.722-23.5 21.722-.675 0-1.341-.033-2.003-.084-1.151 1.513-2.907 2.998-5.631 3.995a10.286 10.286 0 01-3.547.646c-2.94 0-4.83-1.342-4.83-1.342s2.699-.964 3.842-3.18c.479-.929.848-1.789 1.138-2.576C5.05 37.248 0 30.03 0 21.722 0 9.724 10.52 0 23.5 0m0 1.826c-11.96 0-21.69 8.925-21.69 19.895 0 7.34 4.39 14.06 11.453 17.54l1.473.725-.57 1.55a24.914 24.914 0 01-1.229 2.786 7.373 7.373 0 01-1.344 1.818c.232.022.474.034.726.034.97 0 1.956-.18 2.93-.537 2.053-.75 3.672-1.89 4.813-3.39l.597-.784.978.075c.68.053 1.289.079 1.863.079 11.96 0 21.69-8.925 21.69-19.896 0-10.97-9.73-19.895-21.69-19.895" fill="#009ADE"/></g></svg>