<svg width="56" height="59" fill="none" xmlns="http://www.w3.org/2000/svg"><mask id="a" maskUnits="userSpaceOnUse" x="0" y="1" width="56" height="58"><path fill-rule="evenodd" clip-rule="evenodd" d="M0 1h55.049v57.53H0V1z" fill="#fff"/></mask><g mask="url(#a)"><path fill-rule="evenodd" clip-rule="evenodd" d="M53.049 41.338L28.547 55.606l-.021-27.57 24.121-13.601h.402v26.903zM4.469 13.3l11.314-4.97L38.61 20.053 27.547 26.29 4.469 13.3zM2.054 41.29V14.406h.3L26.526 28.01l.019 27.642L2.054 41.29zM27.5 3.185l23.079 10.12-9.882 5.57-22.554-11.58 9.357-4.11zm27.536 9.89L27.499 1 0 13.08l.054.032v29.324L27.499 58.53l27.55-16.043V13.043c-.004.018-.009.022-.013.032z" fill="#009ADE"/></g><path fill-rule="evenodd" clip-rule="evenodd" d="M9.69 28.821l7.167 4.17v6.018L9.69 34.841v-6.02zm-2 7.17l11.167 6.495V31.841L7.69 25.342v10.65z" fill="#009ADE"/></svg>