<svg width="55" height="58" fill="none" xmlns="http://www.w3.org/2000/svg"><mask id="a" maskUnits="userSpaceOnUse" x="0" y="1" width="55" height="57"><path fill-rule="evenodd" clip-rule="evenodd" d="M0 1h55v56.65H0V1z" fill="#fff"/></mask><g mask="url(#a)"><path fill-rule="evenodd" clip-rule="evenodd" d="M42.349 27.15l5.18-17.066 5.127 17.066H42.349zM27.46 11a2.754 2.754 0 01-2.75-2.75 2.753 2.753 0 012.75-2.75 2.752 2.752 0 012.75 2.75A2.753 2.753 0 0127.46 11zm11.165 44.65h-22.33c2.102-4.18 6.424-6.9 11.166-6.9 4.741 0 9.061 2.72 11.164 6.9zM2.348 27.15L7.53 10.084l5.127 17.066H2.348zm52.61.712L48.493 6.337a1 1 0 00-1.915-.003l-.278.916H32.1a4.762 4.762 0 00-3.64-3.64V1h-2v2.61a4.76 4.76 0 00-3.639 3.64H8.767l-.274-.913a1 1 0 00-1.915-.003L.042 27.86A1 1 0 001 29.15h13a1 1 0 00.958-1.288L9.367 9.25h13.454a4.756 4.756 0 003.64 3.64v33.9a14.551 14.551 0 00-12.622 9.518l-.489 1.342h28.222l-.488-1.342A14.553 14.553 0 0028.46 46.79v-33.9a4.758 4.758 0 003.64-3.64h13.593l-5.65 18.61A1 1 0 0041 29.15h13a1 1 0 00.958-1.289z" fill="#009ADE"/></g><path fill-rule="evenodd" clip-rule="evenodd" d="M14.325 31.15H.675a6.838 6.838 0 00-.064.89 6.889 6.889 0 0013.778 0 6.67 6.67 0 00-.064-.89m26.35 0a6.839 6.839 0 00-.063.89 6.888 6.888 0 0013.777 0 6.67 6.67 0 00-.064-.89h-13.65z" fill="#009ADE"/></svg>