<svg width="52" height="54" fill="none" xmlns="http://www.w3.org/2000/svg"><mask id="a" maskUnits="userSpaceOnUse" x="0" y="0" width="52" height="53"><path fill-rule="evenodd" clip-rule="evenodd" d="M0 .9h51.772v51.347H0V.9z" fill="#fff"/></mask><g mask="url(#a)"><path fill-rule="evenodd" clip-rule="evenodd" d="M49.972 46.846c0 1.985-1.614 3.6-3.6 3.6H23.388a2.18 2.18 0 00-.21-.015h-.01c-.477.011-.958.034-1.424-.007l-.136-.011a.95.95 0 00-.143 0c-.063.005-.125.014-.187.021-.032.005-.063.01-.095.012H5.4a3.604 3.604 0 01-3.6-3.6v-9.028h44.572c1.986 0 3.6 1.614 3.6 3.6v5.428zM5.4 2.7h15.782c1.986 0 3.6 1.614 3.6 3.6v9.29a.9.9 0 00.714.88c7.893 1.67 16.118 11.154 17.198 19.548H1.8V6.3c0-1.986 1.615-3.6 3.6-3.6zm40.973 33.318h-1.844c-.179-1.564-.592-3.153-1.176-4.724l3.51-1.314.677 2 1.704-.576-1.95-5.764-1.705.577.695 2.056-3.621 1.357c-1.043-2.284-2.45-4.49-4.11-6.485l3.405-3.121 1.468 1.763 1.383-1.151-3.893-4.675-1.383 1.15 1.271 1.528-3.444 3.158c-1.738-1.857-3.686-3.47-5.738-4.712l2.43-3.842 1.958 1.185.931-1.538-5.204-3.15-.932 1.538 1.708 1.034-2.467 3.901c-1.14-.57-2.3-1.028-3.464-1.334v-8.58c0-2.976-2.422-5.4-5.4-5.4H5.4A5.406 5.406 0 000 6.3v40.547c0 2.978 2.422 5.4 5.4 5.4h15.782c.106 0 .207-.011.371-.032l.036.003c.535.048 1.116.028 1.547.013.042.005.163.016.206.016h23.03c2.979 0 5.4-2.422 5.4-5.4v-5.428c0-2.978-2.421-5.4-5.4-5.4z" fill="#009ADE"/></g><path fill-rule="evenodd" clip-rule="evenodd" d="M8.36 18.967a2.907 2.907 0 013.427-2.25 2.893 2.893 0 012.273 3.215l-2.473-1.188a.9.9 0 00-.779 1.623l2.467 1.184c-.673.689-1.67 1.049-2.665.845a2.905 2.905 0 01-2.25-3.43m1.885 5.193c.315.065.638.098.956.098 1.512 0 2.88-.744 3.748-1.9l11.924 5.727a2.694 2.694 0 005.3.97 2.7 2.7 0 00-2.093-3.191 2.696 2.696 0 00-2.345.638l-12.002-5.765c.02-.076.052-.147.068-.225a4.708 4.708 0 00-4.607-5.655 4.714 4.714 0 00-4.597 3.745 4.708 4.708 0 003.647 5.558" fill="#009ADE"/></svg>