<svg width="55" height="55" fill="none" xmlns="http://www.w3.org/2000/svg"><mask id="a" maskUnits="userSpaceOnUse" x="0" y="0" width="55" height="56"><path fill-rule="evenodd" clip-rule="evenodd" d="M0 0h55v55H0V0z" fill="#fff"/></mask><g mask="url(#a)"><path fill-rule="evenodd" clip-rule="evenodd" d="M46.248 44.763l-3.308-3.307c2.029-2.15 3.126-4.746 3.024-7.547-.304-8.328-9.47-8.349-17.817-8.172V9.185c5.925.276 11.75 2.66 13.614 7.237l1.673-.68c-2.148-5.283-8.703-8.04-15.287-8.352V2.016C41.907 2.362 53 13.657 53 27.5c0 6.654-2.566 12.718-6.753 17.263zm-18.101 8.222V47.23a26.714 26.714 0 005.181-.666c3.273-.765 6.032-2.074 8.137-3.755l3.37 3.37a25.4 25.4 0 01-16.689 6.806zM2 27.5c0-6.689 2.593-12.78 6.821-17.334l3.293 3.291c-1.22 1.671-1.937 3.624-2.06 5.801-.13 2.281.46 4.114 1.746 5.448 2.824 2.925 8.398 2.997 14.44 2.88l.1.098v17.751c-6.648-.239-13.219-3.138-16.027-9.38l-1.648.741c3.133 6.96 10.389 10.182 17.675 10.434v5.741C12.816 52.362 2 41.172 2 27.501zM26.34 2.028v5.337a25.055 25.055 0 00-3.558.318c-3.968.66-7.149 2.153-9.347 4.268l-3.197-3.198c4.28-3.944 9.905-6.446 16.102-6.725zM14.726 13.242c1.94-1.86 4.786-3.184 8.352-3.777a23.793 23.793 0 013.262-.299v15.69L14.726 13.242zm14.292 14.292c9.044-.139 14.92.468 15.139 6.441.092 2.483-.915 4.545-2.492 6.205L29.018 27.534zm-.872 1.958L40.17 41.514c-2.11 1.61-4.767 2.708-7.253 3.29-1.539.36-3.147.57-4.77.63V29.491zm-3.688-3.689c-4.81.04-9.31-.23-11.357-2.352-.938-.97-1.345-2.309-1.244-4.09a8.909 8.909 0 011.568-4.592l11.034 11.034zM27.502 0C20.282 0 13.72 2.784 8.813 7.33l-.017-.017-.728.728c-.01.01-.018.02-.028.028l-.658.658.015.015C2.811 13.657 0 20.248 0 27.5 0 42.688 12.311 55 27.5 55 42.688 55 55 42.688 55 27.5 55 12.313 42.688 0 27.5 0z" fill="#009ADE"/></g></svg>