<svg width="47" height="48" viewBox="0 0 47 48" fill="none" xmlns="http://www.w3.org/2000/svg">
<mask id="mask0" mask-type="alpha" maskUnits="userSpaceOnUse" x="0" y="0" width="47" height="48">
<path fill-rule="evenodd" clip-rule="evenodd" d="M47 0H0V48H47V0Z" fill="white"/>
</mask>
<g mask="url(#mask0)">
<path fill-rule="evenodd" clip-rule="evenodd" d="M23.4996 0C36.4782 0 47 9.72505 47 21.7213C47 33.7159 36.4782 43.4427 23.4996 43.4427C22.8252 43.4427 22.1586 43.4104 21.4972 43.3588C20.3458 44.8721 18.5902 46.3575 15.8658 47.3538C14.5724 47.8262 13.3777 48 12.319 48C9.37818 48 7.48922 46.6579 7.48922 46.6579C7.48922 46.6579 10.1876 45.6938 11.3312 43.4785C11.8099 42.5494 12.1787 41.6892 12.4688 40.9016C5.05052 37.248 0 30.0309 0 21.7213C0 9.72505 10.5209 0 23.4996 0M23.4996 1.8259C11.5407 1.8259 1.81019 10.7511 1.81019 21.7213C1.81019 29.0607 6.19931 35.7819 13.2626 39.2608L14.736 39.9865L14.1655 41.5364C13.8244 42.4638 13.4115 43.3999 12.9371 44.322C12.5718 45.0293 12.0991 45.6327 11.5927 46.14C11.8255 46.1619 12.0671 46.1741 12.319 46.1741C13.2886 46.1741 14.2746 45.9933 15.2494 45.6371C17.302 44.8861 18.9209 43.7465 20.0619 42.2472L20.6592 41.4631L21.6366 41.5382C22.3161 41.5914 22.9256 41.6168 23.4996 41.6168C35.4593 41.6168 45.1898 32.6916 45.1898 21.7213C45.1898 10.7511 35.4593 1.8259 23.4996 1.8259" fill="#009ADE"/>
</g>
</svg>
