<svg width="52" height="54" viewBox="0 0 52 54" fill="none" xmlns="http://www.w3.org/2000/svg">
<mask id="mask0" mask-type="alpha" maskUnits="userSpaceOnUse" x="0" y="0" width="52" height="53">
<path fill-rule="evenodd" clip-rule="evenodd" d="M0 0.900269H51.7724V52.2469H0V0.900269Z" fill="white"/>
</mask>
<g mask="url(#mask0)">
<path fill-rule="evenodd" clip-rule="evenodd" d="M49.9725 46.8458C49.9725 48.8312 48.3579 50.4458 46.3725 50.4458L23.3865 50.4467C23.3397 50.4404 23.2299 50.4305 23.1768 50.4305H23.1678C22.6899 50.4422 22.2093 50.4647 21.7431 50.4242L21.6072 50.4125C21.5595 50.4089 21.5127 50.4089 21.4641 50.4125C21.4011 50.4179 21.339 50.4269 21.2769 50.4341C21.2454 50.4386 21.2139 50.4449 21.1824 50.4458H5.4C3.4146 50.4458 1.8 48.8312 1.8 46.8458V37.8179H43.7058H46.3725C48.3579 37.8179 49.9725 39.4325 49.9725 41.4179V46.8458ZM5.4 2.6999H21.1824C23.1678 2.6999 24.7824 4.3145 24.7824 6.2999V15.5897C24.7824 16.0154 25.0803 16.3826 25.4961 16.4708C33.3891 18.1403 41.6142 27.6236 42.6942 36.0179H1.8V6.2999C1.8 4.3145 3.4146 2.6999 5.4 2.6999V2.6999ZM46.3725 36.0179H44.5293C44.3502 34.4537 43.9371 32.8652 43.353 31.2938L46.8621 29.9798L47.5398 31.9805L49.2444 31.4045L47.2932 25.64L45.5886 26.2169L46.2843 28.2734L42.6627 29.6297C41.6196 27.3464 40.2138 25.1405 38.5533 23.1452L41.958 20.024L43.4259 21.7871L44.8092 20.636L40.9158 15.9605L39.5325 17.1116L40.8042 18.6389L37.3599 21.797C35.622 19.9403 33.6744 18.3275 31.6224 17.0855L34.0524 13.2434L36.0099 14.4278L36.9414 12.8897L31.7367 9.7397L30.8052 11.2778L32.5134 12.3119L30.0456 16.2134C28.9053 15.6437 27.7461 15.1847 26.5824 14.8787V6.2999C26.5824 3.3227 24.1596 0.899902 21.1824 0.899902H5.4C2.4219 0.899902 0 3.3227 0 6.2999V46.8458C0 49.8239 2.4219 52.2458 5.4 52.2458H21.1824C21.2877 52.2458 21.3885 52.235 21.5532 52.2143L21.5892 52.217C22.1238 52.2647 22.7052 52.2449 23.1363 52.2296C23.1777 52.235 23.2992 52.2458 23.3415 52.2458H46.3725C49.3506 52.2458 51.7725 49.8239 51.7725 46.8458V41.4179C51.7725 38.4398 49.3506 36.0179 46.3725 36.0179V36.0179Z" fill="#009ADE"/>
</g>
<path fill-rule="evenodd" clip-rule="evenodd" d="M8.35991 18.9667C8.63711 17.6284 9.82871 16.6564 11.194 16.6564C11.3911 16.6564 11.5909 16.6762 11.7871 16.7176C13.2811 17.0272 14.2549 18.4429 14.0596 19.9315L11.5873 18.7444C11.1373 18.5275 10.6009 18.7192 10.3867 19.1665C10.1716 19.6138 10.3606 20.1511 10.8088 20.3671L13.2748 21.5515C12.6025 22.24 11.6053 22.6 10.6099 22.3957C9.04481 22.0699 8.03501 20.5318 8.35991 18.9667M10.2445 24.1588C10.5595 24.2236 10.8826 24.2569 11.2012 24.2569C12.7132 24.2569 14.0803 23.5126 14.9488 22.3561L26.8729 28.0837C26.647 29.4985 27.565 30.8566 28.9807 31.15C30.4414 31.4533 31.8715 30.5146 32.1739 29.0548C32.4772 27.5959 31.5385 26.1658 30.0796 25.8625C29.2075 25.6825 28.3525 25.9507 27.7351 26.5006L15.7327 20.7361C15.7534 20.6596 15.7849 20.5894 15.8011 20.5111C16.3258 17.9731 14.6887 15.481 12.1525 14.9545C11.8366 14.8897 11.5144 14.8564 11.194 14.8564C8.97911 14.8564 7.04681 16.4314 6.59681 18.6013C6.07121 21.1375 7.70651 23.6314 10.2445 24.1588" fill="#009ADE"/>
</svg>
