<svg width="55" height="55" viewBox="0 0 55 55" fill="none" xmlns="http://www.w3.org/2000/svg">
<mask id="mask0" mask-type="alpha" maskUnits="userSpaceOnUse" x="0" y="0" width="55" height="56">
<path fill-rule="evenodd" clip-rule="evenodd" d="M0.000488281 0.000488281H55.0001V55.0003H0.000488281V0.000488281Z" fill="white"/>
</mask>
<g mask="url(#mask0)">
<path fill-rule="evenodd" clip-rule="evenodd" d="M46.2475 44.7632L42.9395 41.4562C44.9685 39.3052 46.0655 36.7102 45.9635 33.9092C45.6595 25.5812 36.4945 25.5602 28.1465 25.7372V9.18524C34.0715 9.46124 39.8975 11.8442 41.7615 16.4222L43.4345 15.7412C41.2855 10.4592 34.7305 7.70124 28.1465 7.39024V2.01624C41.9085 2.36224 53.0005 13.6572 53.0005 27.5002C53.0005 34.1542 50.4345 40.2182 46.2475 44.7632ZM28.1465 52.9852V47.2302C29.9115 47.1722 31.6585 46.9542 33.3285 46.5642C36.6015 45.7992 39.3605 44.4902 41.4655 42.8092L44.8355 46.1792C40.4295 50.2712 34.5815 52.8232 28.1465 52.9852ZM2.00049 27.5002C2.00049 20.8112 4.59349 14.7192 8.82149 10.1662L12.1135 13.4572C10.8935 15.1282 10.1775 17.0812 10.0535 19.2582C9.92449 21.5392 10.5135 23.3722 11.8005 24.7062C14.6245 27.6312 20.1975 27.7032 26.2405 27.5852L26.3405 27.6842V45.4352C19.6915 45.1962 13.1215 42.2972 10.3125 36.0542L8.66549 36.7962C11.7975 43.7562 19.0535 46.9782 26.3405 47.2302V52.9712C12.8165 52.3622 2.00049 41.1722 2.00049 27.5002ZM26.3405 2.02824V7.36524C25.1335 7.39124 23.9375 7.49124 22.7825 7.68324C18.8145 8.34324 15.6335 9.83624 13.4355 11.9512L10.2375 8.75324C14.5175 4.80924 20.1435 2.30724 26.3405 2.02824ZM14.7265 13.2422C16.6655 11.3812 19.5115 10.0582 23.0785 9.46524C24.1395 9.28924 25.2345 9.19524 26.3405 9.16624V24.8562L14.7265 13.2422ZM29.0185 27.5342C38.0625 27.3952 43.9385 28.0022 44.1565 33.9752C44.2485 36.4582 43.2415 38.5202 41.6645 40.1802L29.0185 27.5342ZM28.1465 29.4922L40.1705 41.5142C38.0595 43.1242 35.4025 44.2222 32.9175 44.8042C31.3785 45.1632 29.7705 45.3742 28.1465 45.4332V29.4922ZM24.4585 25.8032C19.6485 25.8432 15.1475 25.5722 13.1005 23.4512C12.1635 22.4802 11.7565 21.1422 11.8575 19.3602C11.9545 17.6582 12.5005 16.1162 13.4245 14.7692L24.4585 25.8032ZM27.5005 0.000244141C20.2835 0.000244141 13.7205 2.78424 8.81449 7.33024L8.79749 7.31324L8.06949 8.04124C8.05949 8.05124 8.05149 8.06024 8.04149 8.06924L7.38349 8.72724L7.39849 8.74224C2.81149 13.6572 0.000488281 20.2482 0.000488281 27.5002C0.000488281 42.6882 12.3115 55.0002 27.5005 55.0002C42.6865 55.0002 55.0005 42.6882 55.0005 27.5002C55.0005 12.3132 42.6865 0.000244141 27.5005 0.000244141Z" fill="#009ADE"/>
</g>
</svg>
