<svg width="56" height="59" viewBox="0 0 56 59" fill="none" xmlns="http://www.w3.org/2000/svg">
<mask id="mask0" mask-type="alpha" maskUnits="userSpaceOnUse" x="0" y="1" width="56" height="58">
<path fill-rule="evenodd" clip-rule="evenodd" d="M0 1.00024H55.0489V58.5292H0V1.00024Z" fill="white"/>
</mask>
<g mask="url(#mask0)">
<path fill-rule="evenodd" clip-rule="evenodd" d="M53.049 41.3376L28.547 55.6056L28.526 28.0356L52.647 14.4346H53.049V41.3376ZM4.469 13.3006L15.783 8.33063L38.61 20.0526L27.547 26.2896L4.469 13.3006ZM2.054 41.2906V14.4056H2.354L26.526 28.0106L26.545 55.6526L2.054 41.2906ZM27.5 3.18463L50.579 13.3046L40.697 18.8756L18.143 7.29463L27.5 3.18463ZM55.036 13.0746L27.499 0.999634L0 13.0806L0.054 13.1116V42.4356L27.499 58.5296L55.049 42.4866V13.0426C55.045 13.0606 55.04 13.0646 55.036 13.0746V13.0746Z" fill="#009ADE"/>
</g>
<path fill-rule="evenodd" clip-rule="evenodd" d="M9.68994 28.8213L16.8569 32.9913V39.0093L9.68994 34.8413V28.8213ZM7.68994 35.9913L18.8569 42.4863V31.8413L7.68994 25.3423V35.9913Z" fill="#009ADE"/>
</svg>
