<svg width="55" height="58" viewBox="0 0 55 58" fill="none" xmlns="http://www.w3.org/2000/svg">
<mask id="mask0" mask-type="alpha" maskUnits="userSpaceOnUse" x="0" y="1" width="55" height="57">
<path fill-rule="evenodd" clip-rule="evenodd" d="M0 1.00037H54.9999V57.6504H0V1.00037Z" fill="white"/>
</mask>
<g mask="url(#mask0)">
<path fill-rule="evenodd" clip-rule="evenodd" d="M42.3485 27.1504L47.5295 10.0844L52.6555 27.1504H42.3485ZM27.4605 11.0004C25.9445 11.0004 24.7105 9.76637 24.7105 8.25037C24.7105 6.73337 25.9445 5.50037 27.4605 5.50037C28.9775 5.50037 30.2105 6.73337 30.2105 8.25037C30.2105 9.76637 28.9775 11.0004 27.4605 11.0004V11.0004ZM38.6255 55.6504H16.2965C18.3985 51.4704 22.7195 48.7504 27.4615 48.7504C32.2035 48.7504 36.5235 51.4704 38.6255 55.6504V55.6504ZM2.34847 27.1504L7.52947 10.0844L12.6555 27.1504H2.34847ZM54.9575 27.8624L48.4925 6.33737C48.3665 5.91537 47.9775 5.62537 47.5365 5.62537H47.5355C47.0945 5.62537 46.7055 5.91337 46.5775 6.33437L46.3005 7.25037H32.1005C31.7085 5.43337 30.2775 4.00337 28.4605 3.61037V1.00037H26.4605V3.61037C24.6435 4.00337 23.2125 5.43337 22.8215 7.25037H8.76647L8.49247 6.33737C8.36647 5.91537 7.97747 5.62537 7.53647 5.62537H7.53547C7.09447 5.62537 6.70547 5.91337 6.57747 6.33437L0.0424721 27.8594C-0.0485279 28.1634 0.00847207 28.4914 0.196472 28.7464C0.385472 29.0004 0.682472 29.1504 0.999472 29.1504H13.9995C14.3155 29.1504 14.6135 29.0014 14.8025 28.7474C14.9915 28.4934 15.0485 28.1654 14.9575 27.8624L9.36747 9.25037H22.8215C23.2125 11.0674 24.6435 12.4984 26.4605 12.8894V46.7894C20.7965 47.1854 15.8015 50.9074 13.8385 56.3084L13.3505 57.6504H41.5725L41.0845 56.3084C39.1205 50.9074 34.1245 47.1844 28.4605 46.7894V12.8894C30.2775 12.4984 31.7085 11.0674 32.1005 9.25037H45.6925L40.0425 27.8594C39.9515 28.1634 40.0085 28.4914 40.1965 28.7464C40.3855 29.0004 40.6825 29.1504 40.9995 29.1504H53.9995C54.3155 29.1504 54.6135 29.0014 54.8025 28.7474C54.9915 28.4934 55.0485 28.1654 54.9575 27.8624V27.8624Z" fill="#009ADE"/>
</g>
<path fill-rule="evenodd" clip-rule="evenodd" d="M14.3253 31.1504H0.675328C0.637328 31.4414 0.611328 31.7364 0.611328 32.0394C0.611328 35.8434 3.69633 38.9274 7.50033 38.9274C11.3043 38.9274 14.3893 35.8434 14.3893 32.0394C14.3893 31.7364 14.3643 31.4414 14.3253 31.1504" fill="#009ADE"/>
<path fill-rule="evenodd" clip-rule="evenodd" d="M40.6748 31.1504C40.6368 31.4414 40.6118 31.7364 40.6118 32.0394C40.6118 35.8434 43.6958 38.9274 47.4998 38.9274C51.3048 38.9274 54.3888 35.8434 54.3888 32.0394C54.3888 31.7364 54.3638 31.4414 54.3248 31.1504H40.6748Z" fill="#009ADE"/>
</svg>
